<svg width="16" height="12" viewBox="0 0 16 12" fill="none" xmlns="http://www.w3.org/2000/svg">
<path d="M5.55018 9.15L14.0252 0.675C14.2252 0.475 14.4585 0.375 14.7252 0.375C14.9918 0.375 15.2252 0.475 15.4252 0.675C15.6252 0.875 15.7252 1.11267 15.7252 1.388C15.7252 1.66333 15.6252 1.90067 15.4252 2.1L6.25018 11.3C6.05018 11.5 5.81685 11.6 5.55018 11.6C5.28351 11.6 5.05018 11.5 4.85018 11.3L0.55018 7C0.35018 6.8 0.25418 6.56267 0.26218 6.288C0.27018 6.01333 0.374513 5.77567 0.57518 5.575C0.775847 5.37433 1.01351 5.27433 1.28818 5.275C1.56285 5.27567 1.80018 5.37567 2.00018 5.575L5.55018 9.15Z" fill="#0C9621"/>
</svg>
