<svg width="1199" height="148" viewBox="0 0 1199 148" fill="none" xmlns="http://www.w3.org/2000/svg">
<path d="M98.2 145H25.8C7.2 145 0 135.4 0 120V35.5999C0 20.1999 7.2 10.3999 25.8 10.3999H97V36.5999H29.2V64.5999H92.8V90.7999H29.2V118.8H98.2V145Z" fill="#2A2A2A"/>
<path d="M124.805 0.399902H153.205V145H124.805V0.399902Z" fill="#2A2A2A"/>
<path d="M207.961 145H178.361L196.561 29.1999C198.961 15.1999 208.761 7.7999 222.361 7.7999C234.361 7.7999 244.561 12.9999 247.761 25.9999L270.361 110C270.361 110.6 270.561 110.6 270.561 110.6C270.761 110.6 270.961 110.6 270.961 110L293.161 26.5999C296.561 13.5999 306.961 7.7999 319.161 7.7999C332.561 7.7999 342.161 15.3999 344.161 29.7999L360.761 145H331.161L318.161 39.3999C318.161 38.3999 317.961 37.7999 317.161 37.7999C316.561 37.7999 316.161 38.1999 315.961 38.9999L290.961 128.2C288.161 138.4 280.161 143.4 270.561 143.4C261.361 143.4 252.761 138.6 250.361 128.8L225.361 38.9999C225.161 37.9999 224.761 37.7999 224.361 37.7999C223.761 37.7999 223.161 38.1999 223.161 39.1999L207.961 145Z" fill="#2A2A2A"/>
<path d="M430.733 147.6C400.333 147.6 377.133 124 377.133 95.1999C377.133 66.5999 400.533 42.9999 430.733 42.9999C461.333 42.9999 484.533 66.7999 484.533 95.1999C484.533 124 461.133 147.6 430.733 147.6ZM430.733 121C445.333 121 456.133 109.4 456.133 95.3999C456.133 81.3999 445.333 69.7999 430.733 69.7999C416.133 69.7999 405.533 81.3999 405.533 95.3999C405.533 109.4 416.133 121 430.733 121Z" fill="#2A2A2A"/>
<path d="M552.222 120.2C566.822 120.2 574.222 107.2 574.222 91.7999V45.9999H602.622V95.1999C602.622 124.2 585.422 147.6 552.222 147.6C519.222 147.6 502.022 124.2 502.022 95.1999V45.9999H530.422V91.9999C530.422 107.2 537.622 120.2 552.222 120.2Z" fill="#2A2A2A"/>
<path d="M676.897 70.7999C660.897 70.7999 653.697 83.7999 653.697 98.9999V145H625.297V95.5999C625.297 66.7999 642.297 43.1999 676.897 43.1999C711.497 43.1999 728.897 66.5999 728.897 95.5999V145H700.497V98.9999C700.497 83.7999 693.097 70.7999 676.897 70.7999Z" fill="#2A2A2A"/>
<path d="M803.641 147.8C775.041 147.8 760.841 130.6 760.841 105.8V69.9999H742.641V45.9999H760.841V20.7999H789.241V45.9999H824.241V69.9999H789.241V105C789.241 116 795.841 122.4 806.241 122.4C812.041 122.4 819.441 120.6 824.241 117.6V143C819.241 146.2 810.641 147.8 803.641 147.8Z" fill="#2A2A2A"/>
<path d="M887.656 147.6C858.856 147.6 838.656 124 838.656 95.1999C838.656 66.7999 861.856 42.9999 892.256 42.9999C923.256 42.9999 946.056 65.3999 946.056 95.1999V145H919.056V133.4C912.056 142.2 901.256 147.6 887.656 147.6ZM892.256 121C906.856 121 917.656 109.4 917.656 95.3999C917.656 81.3999 906.856 69.7999 892.256 69.7999C877.656 69.7999 867.056 81.3999 867.056 95.3999C867.056 109.4 877.656 121 892.256 121Z" fill="#2A2A2A"/>
<path d="M1018.43 147.8C988.028 147.8 964.828 124.2 964.828 95.5999C964.828 64.7999 986.028 43.1999 1016.83 43.1999C1026.83 43.1999 1036.43 46.7999 1043.63 52.5999L1043.83 0.399902H1072.23V95.5999C1072.23 125.6 1049.43 147.8 1018.43 147.8ZM1018.43 121C1033.03 121 1043.83 109.6 1043.83 95.5999C1043.83 81.5999 1033.03 69.9999 1018.43 69.9999C1003.83 69.9999 993.228 81.5999 993.228 95.5999C993.228 109.6 1003.83 121 1018.43 121Z" fill="#2A2A2A"/>
<path d="M1140 147.6C1111.2 147.6 1091 124 1091 95.1999C1091 66.7999 1114.2 42.9999 1144.6 42.9999C1175.6 42.9999 1198.4 65.3999 1198.4 95.1999V145H1171.4V133.4C1164.4 142.2 1153.6 147.6 1140 147.6ZM1144.6 121C1159.2 121 1170 109.4 1170 95.3999C1170 81.3999 1159.2 69.7999 1144.6 69.7999C1130 69.7999 1119.4 81.3999 1119.4 95.3999C1119.4 109.4 1130 121 1144.6 121Z" fill="#2A2A2A"/>
</svg>
