<svg width="20" height="20" viewBox="0 0 20 20" fill="none" xmlns="http://www.w3.org/2000/svg">
<path d="M14.9843 7.49404e-05H4.49433C3.89985 -0.00046433 3.31115 0.116794 2.76225 0.345075C2.21334 0.573356 1.71511 0.908136 1.29633 1.33007C0.879182 1.75066 0.549791 2.24997 0.327304 2.79898C0.104818 3.34798 -0.00632675 3.93574 0.00033069 4.52807V14.9721C-0.00688355 15.5645 0.104006 16.1524 0.326524 16.7015C0.549042 17.2506 0.878728 17.7498 1.29633 18.1701C1.71499 18.5919 2.21306 18.9266 2.76179 19.1549C3.31051 19.3832 3.89902 19.5005 4.49333 19.5001H9.25633V12.5341H7.43633C7.32367 12.5333 7.21581 12.4883 7.13596 12.4089C7.05611 12.3294 7.01064 12.2217 7.00933 12.1091V9.87308C7.0092 9.81561 7.02045 9.75869 7.04244 9.7056C7.06443 9.65252 7.09672 9.60431 7.13744 9.56377C7.17817 9.52323 7.22652 9.49116 7.27971 9.46942C7.3329 9.44767 7.38987 9.43668 7.44733 9.43708H9.25633V7.25707C9.2056 6.74185 9.2685 6.22177 9.44059 5.7335C9.61267 5.24522 9.88977 4.80064 10.2523 4.43108C10.6153 4.05984 11.0548 3.77223 11.5403 3.58829C12.0258 3.40436 12.5455 3.32852 13.0633 3.36608H14.9173C14.9741 3.36647 15.0301 3.37807 15.0824 3.40024C15.1346 3.4224 15.1819 3.45467 15.2216 3.4952C15.2613 3.53572 15.2926 3.5837 15.3136 3.63637C15.3347 3.68904 15.3451 3.74536 15.3443 3.80207V5.69207C15.3443 5.74801 15.3333 5.80339 15.3118 5.85503C15.2903 5.90667 15.2588 5.95354 15.2191 5.99295C15.1794 6.03237 15.1323 6.06353 15.0805 6.08466C15.0287 6.1058 14.9733 6.11647 14.9173 6.11608H13.7943C12.5583 6.11608 12.3223 6.69807 12.3223 7.54707V9.42607H15.0183C15.0791 9.42577 15.1393 9.43841 15.1948 9.46315C15.2503 9.4879 15.2999 9.52419 15.3403 9.5696C15.3807 9.61501 15.4109 9.6685 15.4291 9.72652C15.4472 9.78454 15.4527 9.84575 15.4453 9.90608L15.1753 12.1431C15.1644 12.2483 15.1145 12.3455 15.0355 12.4158C14.9565 12.4861 14.8541 12.5244 14.7483 12.5231H12.3333V19.4891H15.0073C15.6016 19.4895 16.1902 19.3722 16.7389 19.1439C17.2876 18.9156 17.7857 18.5809 18.2043 18.1591C18.6216 17.7384 18.9511 17.2389 19.1735 16.6897C19.396 16.1405 19.5071 15.5526 19.5003 14.9601V4.52807C19.5081 3.93368 19.3968 3.34375 19.1728 2.79311C18.9488 2.24246 18.6168 1.74228 18.1963 1.32208C17.7752 0.899902 17.2744 0.565629 16.723 0.33868C16.1716 0.111732 15.5806 -0.00336617 14.9843 7.49404e-05Z" fill="#264653"/>
</svg>
