<svg width="16" height="18" viewBox="0 0 16 18" fill="none" xmlns="http://www.w3.org/2000/svg">
<path d="M8 0.75C7.00544 0.75 6.05161 1.14509 5.34835 1.84835C4.64509 2.55161 4.25 3.50544 4.25 4.5C4.25 5.49456 4.64509 6.44839 5.34835 7.15165C6.05161 7.85491 7.00544 8.25 8 8.25C8.99456 8.25 9.94839 7.85491 10.6517 7.15165C11.3549 6.44839 11.75 5.49456 11.75 4.5C11.75 3.50544 11.3549 2.55161 10.6517 1.84835C9.94839 1.14509 8.99456 0.75 8 0.75ZM4 10.25C3.00544 10.25 2.05161 10.6451 1.34835 11.3483C0.645088 12.0516 0.25 13.0054 0.25 14V15.188C0.25 15.942 0.796 16.584 1.54 16.705C5.818 17.404 10.182 17.404 14.46 16.705C14.8198 16.6458 15.147 16.4608 15.3832 16.1831C15.6194 15.9053 15.7494 15.5527 15.75 15.188V14C15.75 13.0054 15.3549 12.0516 14.6517 11.3483C13.9484 10.6451 12.9946 10.25 12 10.25H11.66C11.4733 10.2507 11.292 10.2793 11.116 10.336L10.25 10.619C8.78797 11.0963 7.21203 11.0963 5.75 10.619L4.884 10.336C4.70847 10.2797 4.52534 10.2507 4.341 10.25H4Z" fill="#264653"/>
</svg>
