<svg width="17" height="17" viewBox="0 0 17 17" fill="none" xmlns="http://www.w3.org/2000/svg">
<path d="M2.42857 0C1.08906 0 0 1.08906 0 2.42857V14.5714C0 15.9109 1.08906 17 2.42857 17H14.5714C15.9109 17 17 15.9109 17 14.5714V2.42857C17 1.08906 15.9109 0 14.5714 0H2.42857ZM13.7025 3.1875L9.76362 7.68795L14.3969 13.8125H10.7692L7.9308 10.0975L4.67879 13.8125H2.87634L7.08839 8.9971L2.64487 3.1875H6.36362L8.93259 6.58371L11.9 3.1875H13.7025ZM12.2681 12.7348L5.82098 4.20826H4.7471L11.2663 12.7348H12.2643H12.2681Z" fill="#264653"/>
</svg>
